<svg version="1.1" id="Слой_1" width="128.3px" height="125.4px">
<path style="fill:#00A9E0;" d="M113.3,98h-5.3V88h5.3c2.8,0,5-2.2,5-5V15c0-2.8-2.2-5-5-5h-68c-2.8,0-5,2.2-5,5v3.6h-10V15
c0-8.3,6.7-15,15-15h68c8.3,0,15,6.7,15,15v68C128.3,91.3,121.6,98,113.3,98z"/>
<path style="fill:#00A9E0;" d="M83,125.4H15c-8.3,0-15-6.7-15-15v-68c0-8.3,6.7-15,15-15h68c8.3,0,15,6.7,15,15v68
C98,118.7,91.3,125.4,83,125.4z M15,37.4c-2.8,0-5,2.2-5,5v68c0,2.8,2.2,5,5,5h68c2.8,0,5-2.2,5-5v-68c0-2.8-2.2-5-5-5H15z"/>
</svg>
