<svg xmlns="http://www.w3.org/2000/svg" width="245" height="42"><path fill="#FFF" d="M146.448.081v7.408h3.478V.081h1.587v7.445l.816.042-.089 3.382h-1.218l-.088-2.154h-6.082V.081zM158.78 4.932h-3.284v2.555h3.679v1.307h-5.266V.081h5.069v1.303h-3.482v2.252h3.284zM162.479.081v3.492h3.688V.081h1.589v8.715h-1.589V4.954h-3.688v3.842h-1.591V.081zM171.574 1.41h-2.488V.081h6.582V1.41h-2.512v7.384h-1.582zM177.016.195c.575-.101 1.367-.18 2.427-.18 1.168 0 2.004.246 2.563.711.519.426.849 1.112.849 1.924 0 .834-.258 1.501-.735 1.964-.641.638-1.631.946-2.751.946a3.71 3.71 0 0 1-.779-.063v3.296h-1.573V.195zm1.573 4.047c.211.065.452.08.779.08 1.188 0 1.913-.594 1.913-1.608 0-.969-.671-1.469-1.771-1.469-.445 0-.753.035-.921.076v2.921zM152.431 20.757c-.052-1.126-.115-2.483-.102-3.663h-.039a41.59 41.59 0 0 1-1.038 3.341l-1.276 3.771h-1.215l-1.162-3.722a48.112 48.112 0 0 1-.888-3.39h-.02a211.814 211.814 0 0 1-.156 3.715l-.19 3.497h-1.493l.588-8.709h2.09l1.14 3.502c.309 1.021.584 2.06.801 3.028h.037c.237-.945.534-2.02.871-3.038l1.202-3.492h2.066l.506 8.709h-1.555l-.167-3.549zM163.772 19.863c0 2.92-1.773 4.588-4.163 4.588-2.471 0-4.022-1.883-4.022-4.429 0-2.692 1.691-4.583 4.152-4.583 2.532 0 4.033 1.93 4.033 4.424m-6.504.114c0 1.786.888 3.196 2.418 3.196 1.534 0 2.404-1.437 2.404-3.256 0-1.644-.812-3.196-2.404-3.196-1.579 0-2.418 1.462-2.418 3.256M171.555 15.597v8.711h-1.587v-7.406h-2.382v2.33c0 2.078-.192 3.979-1.456 4.783a3.302 3.302 0 0 1-1.552.414l-.213-1.281c.403-.052.749-.25.959-.463.61-.611.706-1.992.706-3.337v-3.751h5.525zM178.589 20.444h-3.281v2.558h3.668v1.304h-5.264v-8.709h5.073v1.304h-3.477v2.249h3.281zM182.265 15.597v3.738h.24l2.679-3.738h1.915l-3.152 3.932c1.264.233 1.795 1.059 2.194 2.16.326.91.582 1.798.983 2.619h-1.708c-.306-.591-.499-1.317-.723-1.974-.35-1.06-.816-1.825-2.068-1.825h-.36v3.799h-1.578v-8.711h1.578zM189.62 15.597l1.475 3.401c.231.564.425 1.082.614 1.602h.05c.119-.399.277-.942.497-1.627l1.124-3.376h1.685l-1.719 4.38c-.509 1.267-1.049 2.592-1.681 3.402-.57.71-1.257 1.116-2.162 1.116-.393 0-.625-.044-.812-.12l.113-1.279c.141.039.306.052.558.052.738 0 1.188-.619 1.408-1.114.081-.165.051-.283-.025-.466l-2.92-5.971h1.795zM202.204 15.597v8.711h-1.596v-7.406h-2.377v2.33c0 2.078-.195 3.979-1.461 4.783a3.274 3.274 0 0 1-1.554.414l-.202-1.281c.401-.052.747-.25.95-.463.61-.611.715-1.992.715-3.337v-3.751h5.525zM203.58 24.308a3.59 3.59 0 0 0 .405-.892c.358-.995.58-2.106 1.271-2.777.188-.194.449-.35.723-.438v-.039c-1.029-.185-1.876-.906-1.876-2.134 0-.787.335-1.41.847-1.813.612-.472 1.585-.686 2.696-.686.855 0 1.704.083 2.316.185v8.595h-1.583V20.73h-.634c-.458 0-.799.111-1.067.374-.58.571-.814 1.745-1.09 2.521-.089.23-.165.425-.298.683h-1.71zm4.799-7.482a3.968 3.968 0 0 0-.914-.091c-.972 0-1.772.387-1.772 1.41 0 .916.812 1.417 1.873 1.417.311 0 .623 0 .813-.024v-2.712zM212.106 15.713c.581-.102 1.367-.185 2.433-.185 1.159 0 1.995.25 2.56.711.51.432.851 1.115.851 1.929 0 .83-.258 1.502-.735 1.966-.645.636-1.63.941-2.755.941-.3 0-.551-.008-.772-.063v3.296h-1.58v-8.595zm1.581 4.049c.202.065.449.074.772.074 1.189 0 1.91-.59 1.91-1.602 0-.97-.671-1.477-1.769-1.477-.441 0-.745.042-.914.079v2.926zM221.247 15.597v3.492h3.684v-3.492h1.59v8.711h-1.59V20.47h-3.684v3.838h-1.592v-8.711zM236.402 19.863c0 2.92-1.778 4.588-4.163 4.588-2.471 0-4.024-1.883-4.024-4.429 0-2.692 1.695-4.583 4.152-4.583 2.533 0 4.035 1.93 4.035 4.424m-6.501.114c0 1.786.89 3.196 2.416 3.196 1.538 0 2.404-1.437 2.404-3.256 0-1.644-.812-3.196-2.404-3.196-1.583 0-2.416 1.462-2.416 3.256M239.569 15.597v3.078a57.52 57.52 0 0 1-.103 3.827l.039.008a37.413 37.413 0 0 1 1.58-3.01l2.299-3.903H245v8.711h-1.472v-3.076c0-1.381.021-2.497.126-3.621h-.039c-.412.998-.994 2.085-1.539 3.015l-2.205 3.683h-1.778v-8.711h1.476zm1.305-1.927c.041.466.169.799.67.799.476 0 .639-.32.685-.799h1.12c-.083 1.006-.713 1.513-1.839 1.513-1.099 0-1.676-.531-1.761-1.513h1.125zM152.097 31.112v7.449l.82.032-.091 3.391h-1.216l-.085-2.156h-5.296l-.091 2.156h-1.216l-.071-3.391.696-.032c.341-.615.646-1.246.84-1.932.273-.93.378-1.988.378-3.241v-2.276h5.332zm-3.86 2.681c0 1.188-.13 2.264-.415 3.174a7.721 7.721 0 0 1-.65 1.556h3.329V32.42h-2.264v1.373zM155.976 31.114v3.073c0 1.385-.028 2.665-.11 3.831l.043.01a36.121 36.121 0 0 1 1.574-3.008l2.301-3.906h1.617v8.716h-1.47v-3.078c0-1.385.02-2.498.124-3.623h-.037c-.417.995-.999 2.083-1.544 3.013l-2.207 3.688h-1.77v-8.716h1.479zM165.29 37.354l-.751 2.474h-1.635l2.787-8.716h2.038l2.822 8.716h-1.715l-.79-2.474h-2.756zm2.5-1.197-.686-2.151c-.167-.525-.311-1.124-.438-1.627h-.028c-.133.503-.271 1.111-.414 1.627l-.671 2.151h2.237zM177.074 31.114v1.304h-3.392v7.412h-1.589v-8.716zM180.002 31.114v3.49h3.695v-3.49h1.586v8.716h-1.586v-3.848h-3.695v3.848h-1.582v-8.716zM195.162 35.374c0 2.931-1.767 4.594-4.165 4.594-2.464 0-4.019-1.885-4.019-4.438 0-2.688 1.693-4.575 4.15-4.575 2.534-.001 4.034 1.927 4.034 4.419m-6.506.121c0 1.782.891 3.192 2.421 3.192 1.534 0 2.4-1.431 2.4-3.261 0-1.634-.808-3.192-2.4-3.192-1.578 0-2.421 1.465-2.421 3.261M203.103 39.582c-.376.18-1.205.386-2.265.386-2.768 0-4.449-1.728-4.449-4.397 0-2.864 2.008-4.6 4.669-4.6 1.046 0 1.782.223 2.107.388l-.341 1.269a4.191 4.191 0 0 0-1.699-.341c-1.773 0-3.055 1.117-3.055 3.209 0 1.928 1.112 3.143 3.042 3.143.629 0 1.302-.128 1.728-.313l.263 1.256zM206.788 32.444h-2.483v-1.33h6.577v1.33h-2.507v7.384h-1.587zM213.704 31.114v3.073c0 1.385-.028 2.665-.103 3.831l.035.01a37.78 37.78 0 0 1 1.58-3.008l2.299-3.906h1.617v8.716h-1.477v-3.078c0-1.385.024-2.498.135-3.623h-.039c-.419.995-.996 2.083-1.541 3.013L214 39.83h-1.769v-8.716h1.473zM222.842 31.114v3.733h.248l2.681-3.733h1.905l-3.151 3.929c1.268.231 1.8 1.06 2.203 2.158.325.918.582 1.801.981 2.629H226c-.31-.595-.503-1.32-.725-1.98-.352-1.063-.812-1.828-2.07-1.828h-.363v3.809h-1.578v-8.716h1.578zM230.537 31.114v3.073c0 1.385-.02 2.665-.106 3.831l.043.01a36.79 36.79 0 0 1 1.578-3.008l2.299-3.906h1.615v8.716h-1.476v-3.078c0-1.385.032-2.498.132-3.623h-.034c-.413.995-.994 2.083-1.539 3.013l-2.215 3.688h-1.773v-8.716h1.476zM84.928.022H46.294a.62.62 0 0 0-.623.624V39.28c0 .343.274.625.623.625h38.634a.623.623 0 0 0 .624-.625V.646a.622.622 0 0 0-.624-.624M131.204 18.263C130.401 8.502 122.719.829 112.868.018L91.949.023a.62.62 0 0 0-.623.623V39.28c0 .343.276.625.623.625h20.937l.048-.002c9.787-.813 17.473-8.502 18.275-18.34l-.005-3.3zM39.894.646a.626.626 0 0 0-.625-.623L18.245.027C8.474.822.801 8.515 0 18.366l.006 3.297c.797 9.772 8.488 17.438 18.289 18.242a.258.258 0 0 0 .047.003l20.92-.003a.628.628 0 0 0 .627-.625c0-4.221.009-8.447.012-12.67.012-7.991.022-17.05-.007-25.964"/><path fill="#00B388" d="M33.099 26.237a12.36 12.36 0 0 1-4.008 4.073 11.964 11.964 0 0 1-6.373 1.791c-1.674 0-3.262-.319-4.725-.954a12.387 12.387 0 0 1-3.865-2.596 12.182 12.182 0 0 1-2.593-3.856 11.827 11.827 0 0 1-.958-4.731c0-1.643.32-3.225.958-4.694a12.248 12.248 0 0 1 6.452-6.488 11.941 11.941 0 0 1 4.732-.952c1.124 0 2.231.149 3.284.453 1.045.298 2.035.723 2.936 1.271a11.66 11.66 0 0 1 2.444 1.962c.566.593 1.07 1.247 1.515 1.937a.643.643 0 0 1 .075.498.648.648 0 0 1-.311.388l-.652.35c-.317.168-.621.32-.912.47l-.975.486c-.242.118-.521.263-.867.427a.624.624 0 0 1-.786-.214c-.559-.823-1.298-1.505-2.201-2.044-1.07-.634-2.259-.951-3.551-.951-.979 0-1.909.19-2.771.567a7.594 7.594 0 0 0-2.26 1.527 6.86 6.86 0 0 0-1.524 2.261 6.99 6.99 0 0 0-.557 2.748c0 .981.187 1.909.557 2.767a7.02 7.02 0 0 0 1.524 2.264 7.18 7.18 0 0 0 2.262 1.527 7.069 7.069 0 0 0 2.77.554c1.333 0 2.567-.341 3.674-1.027a7.066 7.066 0 0 0 2.275-2.209.63.63 0 0 1 .813-.216l.831.434c.354.178.666.347.954.504.296.158.593.313.909.468.182.092.408.195.663.321a.613.613 0 0 1 .261.884"/><path fill="#00A9E0" d="M77.982 31.313a.62.62 0 0 1-.626.623h-3.207a.627.627 0 0 1-.627-.623V14.968l-5.789 16.546a.617.617 0 0 1-.593.422h-3.167a.626.626 0 0 1-.584-.418l-5.721-16.38c.004.022-.052 0-.071 0v16.175a.623.623 0 0 1-.627.623h-3.106a.629.629 0 0 1-.632-.623V8.618c0-.342.286-.624.632-.624h5.762a.63.63 0 0 1 .593.427l5.327 16.169 5.358-16.169a.625.625 0 0 1 .594-.427h5.858c.353 0 .626.282.626.624v22.695zM120.159 14.633c-.548-1.47-1.313-2.712-2.28-3.688a9.427 9.427 0 0 0-3.45-2.213c-1.321-.486-2.774-.737-4.314-.737h-9.703a.622.622 0 0 0-.621.624v22.694c0 .345.274.623.621.623h9.703c1.823 0 3.432-.313 4.782-.923 1.347-.615 2.485-1.462 3.386-2.531.898-1.07 1.583-2.355 2.03-3.823.445-1.474.667-3.095.667-4.828-.001-1.976-.281-3.727-.821-5.198m-4.945 9.055c-.335.91-.786 1.657-1.34 2.226a4.92 4.92 0 0 1-1.917 1.226 6.79 6.79 0 0 1-2.21.371h-4.695V12.42h3.751c1.292 0 2.397.182 3.274.551.874.366 1.594.908 2.13 1.596.533.688.922 1.527 1.159 2.5.229.969.35 2.067.35 3.265 0 1.314-.173 2.443-.502 3.356"/></svg>