<svg xmlns="http://www.w3.org/2000/svg" width="245" height="42"><path fill="#003594" d="M146.448.081v7.408h3.478V.081h1.587v7.445l.816.042-.089 3.382h-1.218l-.088-2.155h-6.083V.081zM158.78 4.931h-3.284v2.556h3.679v1.306h-5.266V.081h5.069v1.302h-3.482v2.252h3.284zM162.479.081v3.492h3.688V.081h1.589v8.714h-1.589V4.954h-3.688v3.841h-1.591V.081zM171.573 1.41h-2.487V.081h6.582V1.41h-2.512v7.383h-1.583zM177.016.196c.575-.102 1.367-.18 2.427-.18 1.168 0 2.003.246 2.563.711.519.425.849 1.112.849 1.923 0 .834-.259 1.501-.736 1.964-.64.638-1.63.946-2.75.946-.304 0-.56-.015-.779-.062v3.295h-1.573V.196zm1.573 4.046c.211.066.452.081.779.081 1.188 0 1.912-.594 1.912-1.608 0-.968-.67-1.469-1.771-1.469-.445 0-.754.035-.921.076v2.92zM152.431 20.757c-.052-1.126-.115-2.484-.102-3.664h-.039a41.341 41.341 0 0 1-1.038 3.341l-1.276 3.771h-1.215l-1.162-3.722a48.255 48.255 0 0 1-.888-3.39h-.02a211.814 211.814 0 0 1-.156 3.715l-.19 3.497h-1.494l.589-8.709h2.09l1.14 3.502c.309 1.021.584 2.06.801 3.028h.037c.236-.945.534-2.02.87-3.038l1.203-3.492h2.066l.506 8.709h-1.555l-.167-3.548zM163.772 19.863c0 2.92-1.773 4.588-4.163 4.588-2.471 0-4.022-1.883-4.022-4.429 0-2.692 1.691-4.583 4.152-4.583 2.532 0 4.033 1.93 4.033 4.424m-6.505.114c0 1.786.889 3.196 2.419 3.196 1.534 0 2.404-1.437 2.404-3.256 0-1.644-.812-3.196-2.404-3.196-1.579 0-2.419 1.461-2.419 3.256M171.554 15.597v8.711h-1.586v-7.407h-2.382v2.331c0 2.078-.193 3.979-1.456 4.783a3.302 3.302 0 0 1-1.552.414l-.213-1.281c.403-.052.749-.25.959-.463.61-.611.706-1.992.706-3.337v-3.75h5.524zM178.589 20.444h-3.281v2.558h3.668v1.304h-5.264v-8.709h5.072v1.304h-3.476v2.249h3.281zM182.264 15.597v3.738h.241l2.679-3.738h1.914l-3.151 3.931c1.264.233 1.795 1.059 2.194 2.161.326.91.582 1.798.983 2.619h-1.708c-.307-.591-.499-1.317-.723-1.974-.35-1.06-.816-1.826-2.069-1.826h-.36v3.799h-1.578v-8.711h1.578zM189.62 15.597l1.474 3.401c.232.565.426 1.082.614 1.602h.051c.119-.4.277-.942.497-1.627l1.124-3.376h1.685l-1.72 4.38c-.508 1.267-1.048 2.592-1.68 3.402-.571.71-1.257 1.116-2.162 1.116-.393 0-.625-.044-.812-.12l.112-1.279c.142.039.307.052.559.052.737 0 1.188-.619 1.408-1.114.08-.165.05-.283-.025-.466l-2.92-5.971h1.795zM202.203 15.597v8.711h-1.595v-7.407h-2.377v2.331c0 2.078-.195 3.979-1.461 4.783a3.278 3.278 0 0 1-1.555.414l-.201-1.281c.401-.052.746-.25.95-.463.61-.611.715-1.992.715-3.337v-3.75h5.524zM203.58 24.308a3.59 3.59 0 0 0 .405-.892c.358-.995.58-2.106 1.271-2.777a1.8 1.8 0 0 1 .723-.439v-.039c-1.029-.184-1.876-.906-1.876-2.134 0-.787.335-1.41.847-1.813.612-.472 1.585-.685 2.696-.685.854 0 1.704.083 2.315.185v8.595h-1.582V20.73h-.634c-.458 0-.799.111-1.068.375-.579.571-.813 1.745-1.089 2.521-.09.23-.165.425-.298.683h-1.71zm4.799-7.482a3.992 3.992 0 0 0-.914-.09c-.973 0-1.773.387-1.773 1.41 0 .917.813 1.417 1.873 1.417.311 0 .623 0 .814-.025v-2.712zM212.105 15.713c.582-.102 1.368-.185 2.434-.185 1.159 0 1.995.25 2.56.71.51.432.851 1.115.851 1.929 0 .83-.258 1.502-.735 1.966-.646.636-1.631.941-2.755.941-.3 0-.552-.008-.772-.063v3.296h-1.581v-8.594zm1.582 4.048c.201.066.449.074.772.074 1.189 0 1.91-.589 1.91-1.602 0-.969-.671-1.476-1.77-1.476-.44 0-.744.042-.913.079v2.925zM221.246 15.597v3.492h3.684v-3.492h1.591v8.711h-1.591v-3.839h-3.684v3.839h-1.591v-8.711zM236.401 19.863c0 2.92-1.777 4.588-4.163 4.588-2.47 0-4.024-1.883-4.024-4.429 0-2.692 1.695-4.583 4.152-4.583 2.533 0 4.035 1.93 4.035 4.424m-6.501.114c0 1.786.891 3.196 2.416 3.196 1.539 0 2.405-1.437 2.405-3.256 0-1.644-.812-3.196-2.405-3.196-1.582 0-2.416 1.461-2.416 3.256M239.568 15.597v3.078c0 1.38-.023 2.663-.102 3.827l.039.008a36.78 36.78 0 0 1 1.58-3.01l2.299-3.903H245v8.711h-1.472v-3.076c0-1.381.021-2.497.126-3.621h-.039c-.413.998-.994 2.084-1.539 3.014l-2.206 3.683h-1.777v-8.711h1.475zm1.305-1.927c.042.465.17.799.671.799.476 0 .639-.321.684-.799h1.12c-.082 1.005-.712 1.513-1.838 1.513-1.099 0-1.676-.532-1.761-1.513h1.124zM152.097 31.112v7.449l.82.032-.091 3.391h-1.216l-.085-2.156h-5.296l-.092 2.156h-1.215l-.072-3.391.697-.032c.341-.615.646-1.246.84-1.932.273-.93.378-1.988.378-3.241v-2.276h5.332zm-3.86 2.681c0 1.188-.13 2.264-.415 3.174a7.721 7.721 0 0 1-.65 1.556h3.329V32.42h-2.264v1.373zM155.976 31.114v3.073c0 1.385-.028 2.665-.11 3.831l.043.01a36.41 36.41 0 0 1 1.573-3.008l2.302-3.906h1.617v8.716h-1.47v-3.078c0-1.385.02-2.498.123-3.624h-.036c-.417.996-.999 2.084-1.544 3.014l-2.207 3.688h-1.77v-8.716h1.479zM165.29 37.354l-.751 2.474h-1.635l2.787-8.716h2.038l2.822 8.716h-1.715l-.79-2.474h-2.756zm2.5-1.197-.686-2.152c-.167-.524-.311-1.123-.438-1.626h-.028c-.133.503-.271 1.111-.415 1.626l-.67 2.152h2.237zM177.074 31.114v1.304h-3.392v7.412h-1.589v-8.716zM180.002 31.114v3.49h3.694v-3.49h1.587v8.716h-1.587v-3.848h-3.694v3.848h-1.582v-8.716zM195.162 35.374c0 2.931-1.767 4.594-4.166 4.594-2.463 0-4.018-1.885-4.018-4.438 0-2.688 1.693-4.575 4.15-4.575 2.534-.001 4.034 1.927 4.034 4.419m-6.506.121c0 1.782.891 3.192 2.421 3.192 1.534 0 2.4-1.431 2.4-3.261 0-1.634-.808-3.192-2.4-3.192-1.578 0-2.421 1.465-2.421 3.261M203.103 39.582c-.376.18-1.205.386-2.265.386-2.768 0-4.449-1.728-4.449-4.397 0-2.864 2.008-4.6 4.669-4.6 1.046 0 1.782.223 2.107.388l-.341 1.269a4.195 4.195 0 0 0-1.699-.341c-1.773 0-3.055 1.117-3.055 3.209 0 1.928 1.111 3.143 3.041 3.143.63 0 1.303-.128 1.729-.313l.263 1.256zM206.788 32.444h-2.483v-1.33h6.577v1.33h-2.507v7.384h-1.587zM213.703 31.114v3.073c0 1.385-.028 2.665-.102 3.831l.034.01a38.125 38.125 0 0 1 1.581-3.008l2.299-3.906h1.616v8.716h-1.476v-3.078c0-1.385.023-2.498.135-3.624h-.039c-.419.996-.996 2.084-1.541 3.014L214 39.83h-1.77v-8.716h1.473zM222.842 31.114v3.733h.247l2.682-3.733h1.905l-3.151 3.929c1.268.231 1.799 1.06 2.203 2.158.325.918.581 1.801.98 2.629H226c-.311-.595-.504-1.32-.725-1.98-.352-1.063-.813-1.828-2.071-1.828h-.362v3.809h-1.578v-8.716h1.578zM230.537 31.114v3.073c0 1.385-.02 2.665-.106 3.831l.043.01a36.482 36.482 0 0 1 1.578-3.008l2.299-3.906h1.615v8.716h-1.477v-3.078c0-1.385.033-2.498.133-3.624h-.035c-.412.996-.994 2.084-1.539 3.014l-2.214 3.688h-1.773v-8.716h1.476z"/><path fill="#00A9E0" d="M84.929.022H46.294a.621.621 0 0 0-.623.625V39.28c0 .343.275.625.623.625h38.634a.624.624 0 0 0 .624-.625V.646a.62.62 0 0 0-.623-.624M131.204 18.263C130.401 8.502 122.719.829 112.868.018L91.949.023a.62.62 0 0 0-.623.623V39.28c0 .343.276.625.623.625h20.937l.048-.002c9.787-.813 17.473-8.502 18.275-18.34l-.005-3.3z"/><path fill="#00B388" d="M39.895.646a.626.626 0 0 0-.625-.623L18.246.027C8.475.822.801 8.514 0 18.366l.007 3.297c.796 9.772 8.488 17.438 18.289 18.242.013.003.036.003.048.003l20.919-.003a.628.628 0 0 0 .627-.625c0-4.221.008-8.447.012-12.67.011-7.991.022-17.051-.007-25.964"/><path fill="#FFF" d="M33.099 26.237a12.354 12.354 0 0 1-1.531 2.029 12.056 12.056 0 0 1-2.476 2.044 11.964 11.964 0 0 1-6.373 1.791c-1.675 0-3.263-.319-4.726-.954a12.398 12.398 0 0 1-3.865-2.596 12.198 12.198 0 0 1-2.593-3.856 11.827 11.827 0 0 1-.958-4.731c0-1.643.32-3.225.958-4.694a12.262 12.262 0 0 1 6.451-6.489 11.938 11.938 0 0 1 4.732-.952c1.123 0 2.231.149 3.284.454 1.045.298 2.035.722 2.936 1.271a11.66 11.66 0 0 1 2.444 1.962 13.02 13.02 0 0 1 1.515 1.936.646.646 0 0 1 .075.499.65.65 0 0 1-.31.388l-.652.349c-.317.168-.621.321-.912.47l-.975.486c-.242.118-.521.262-.867.426a.624.624 0 0 1-.786-.213c-.559-.824-1.298-1.505-2.201-2.044-1.07-.634-2.26-.951-3.551-.951a6.87 6.87 0 0 0-2.772.567 7.607 7.607 0 0 0-2.26 1.527 6.842 6.842 0 0 0-1.523 2.261 6.992 6.992 0 0 0-.557 2.749c0 .981.187 1.909.557 2.767.362.86.878 1.623 1.523 2.264a7.18 7.18 0 0 0 2.262 1.527 7.069 7.069 0 0 0 2.77.554c1.333 0 2.567-.341 3.674-1.027a7.096 7.096 0 0 0 2.275-2.209.63.63 0 0 1 .813-.216l.831.434c.354.178.667.347.954.504.296.158.592.313.908.468.182.092.408.195.663.321a.628.628 0 0 1 .331.386.604.604 0 0 1-.068.498M77.982 31.313a.62.62 0 0 1-.626.623h-3.208a.627.627 0 0 1-.627-.623V14.967l-5.789 16.546a.618.618 0 0 1-.594.422h-3.167a.626.626 0 0 1-.584-.418l-5.721-16.38c.004.022-.052 0-.071 0v16.175a.624.624 0 0 1-.627.623h-3.106a.629.629 0 0 1-.631-.623V8.618a.63.63 0 0 1 .631-.624h5.762c.269 0 .509.176.594.426l5.327 16.169L70.904 8.42a.624.624 0 0 1 .594-.426h5.859c.353 0 .626.282.626.624v22.695zM120.159 14.632c-.548-1.469-1.313-2.711-2.28-3.688a9.44 9.44 0 0 0-3.45-2.213c-1.321-.486-2.774-.737-4.314-.737h-9.703a.622.622 0 0 0-.621.624v22.695a.62.62 0 0 0 .621.623h9.703c1.823 0 3.432-.313 4.782-.923 1.347-.615 2.485-1.462 3.386-2.531.898-1.07 1.583-2.355 2.03-3.823.445-1.474.667-3.095.667-4.829-.001-1.975-.281-3.726-.821-5.198m-4.945 9.056c-.335.91-.786 1.657-1.34 2.226a4.92 4.92 0 0 1-1.917 1.226 6.79 6.79 0 0 1-2.21.371h-4.695V12.419h3.751c1.292 0 2.397.183 3.274.551.874.366 1.594.909 2.13 1.596.533.688.922 1.527 1.159 2.5.229.969.35 2.067.35 3.264 0 1.316-.173 2.445-.502 3.358"/></svg>